<!DOCTYPE svg PUBLIC "-//W3C//DTD SVG 1.1//EN" "http://www.w3.org/Graphics/SVG/1.1/DTD/svg11.dtd">

<!-- Uploaded to: SVG Repo, www.svgrepo.com, Transformed by: SVG Repo Mixer Tools -->
<svg fill="#f3c865" width="800px" height="800px" viewBox="0 0 32 32" version="1.1" xmlns="http://www.w3.org/2000/svg">

<g id="SVGRepo_bgCarrier" stroke-width="0"/>

<g id="SVGRepo_tracerCarrier" stroke-linecap="round" stroke-linejoin="round"/>

<g id="SVGRepo_iconCarrier"> <title>cisco</title> <path d="M1.004 14.41c0.026 0.338 0.307 0.602 0.649 0.602s0.623-0.264 0.649-0.6l0-0.002v-1.443c-0.016-0.346-0.3-0.621-0.649-0.621s-0.633 0.275-0.649 0.62l-0 0.001v1.443zM4.598 14.41c0.030 0.335 0.31 0.595 0.65 0.595s0.62-0.26 0.65-0.593l0-0.003v-3.235c-0.016-0.346-0.3-0.621-0.649-0.621s-0.633 0.275-0.649 0.62l-0 0.001v3.235zM8.174 15.714c0.016 0.346 0.3 0.621 0.649 0.621s0.633-0.275 0.649-0.62l0-0.001v-6.999c-0.016-0.346-0.3-0.621-0.649-0.621s-0.633 0.275-0.649 0.62l-0 0.001v6.999zM11.781 14.41c0.016 0.346 0.3 0.621 0.649 0.621s0.633-0.275 0.649-0.62l0-0.001v-3.235c-0.016-0.346-0.3-0.621-0.649-0.621s-0.633 0.275-0.649 0.62l-0 0.001v3.235zM15.368 14.41c0.034 0.332 0.311 0.588 0.649 0.588s0.616-0.257 0.649-0.586l0-0.003v-1.443c-0.016-0.346-0.3-0.621-0.649-0.621s-0.633 0.275-0.649 0.62l-0 0.001v1.443zM18.99 14.41c0.022 0.342 0.304 0.611 0.65 0.611s0.628-0.269 0.65-0.609l0-0.002v-3.235c-0.016-0.346-0.3-0.621-0.649-0.621s-0.633 0.275-0.649 0.62l-0 0.001v3.235zM22.537 15.714c0.026 0.338 0.307 0.602 0.649 0.602s0.623-0.264 0.649-0.6l0-0.002v-6.999c-0.016-0.346-0.3-0.621-0.649-0.621s-0.633 0.275-0.649 0.62l-0 0.001v6.999zM26.143 14.41c0.027 0.338 0.308 0.603 0.65 0.603s0.624-0.264 0.65-0.601l0-0.002v-3.235c-0.022-0.342-0.304-0.611-0.65-0.611s-0.628 0.269-0.65 0.609l-0 0.002v3.235zM29.697 14.41c0.016 0.346 0.3 0.621 0.649 0.621s0.633-0.275 0.649-0.62l0-0.001v-1.443c-0.016-0.346-0.3-0.621-0.649-0.621s-0.633 0.275-0.649 0.62l-0 0.001v1.443zM22.776 21.201c0.024 1.495 1.242 2.698 2.74 2.698 0.21 0 0.414-0.024 0.61-0.068l-0.018 0.003c1.247-0.242 2.176-1.326 2.176-2.626 0-0.969-0.516-1.818-1.288-2.287l-0.012-0.007c-0.412-0.259-0.913-0.412-1.45-0.412-1.502 0-2.724 1.201-2.757 2.696l-0 0.003zM24.681 20.134c0.234-0.192 0.536-0.308 0.865-0.308 0.756 0 1.369 0.613 1.369 1.369 0 0.427-0.196 0.809-0.502 1.060l-0.002 0.002-0.021 0.017c-0.228 0.177-0.519 0.283-0.834 0.283-0.756 0-1.37-0.613-1.37-1.37 0-0.423 0.192-0.801 0.493-1.052l0.002-0.002zM9.483 23.803h1.312v-5.207h-1.312zM12.576 22.559l-0.005 1.196 0.087 0.015c0.232 0.046 0.517 0.084 0.805 0.105l0.024 0.001c0.14 0.014 0.303 0.022 0.468 0.022 0.093 0 0.186-0.003 0.279-0.008l-0.013 0.001c0.253-0.019 0.487-0.066 0.711-0.136l-0.022 0.006c0.275-0.079 0.514-0.211 0.716-0.383l-0.003 0.002c0.184-0.158 0.326-0.359 0.413-0.587l0.003-0.010c0.069-0.175 0.11-0.377 0.11-0.589 0-0.22-0.043-0.43-0.122-0.622l0.004 0.011c-0.084-0.206-0.211-0.379-0.371-0.516l-0.002-0.002c-0.153-0.137-0.336-0.246-0.536-0.315l-0.011-0.003-0.902-0.335c-0.108-0.047-0.194-0.129-0.245-0.232l-0.001-0.003c-0.017-0.037-0.027-0.081-0.027-0.127 0-0.054 0.014-0.104 0.038-0.148l-0.001 0.002c0.047-0.076 0.112-0.136 0.19-0.176l0.003-0.001c0.093-0.046 0.202-0.079 0.316-0.092l0.005-0c0.080-0.012 0.173-0.019 0.268-0.019 0.109 0 0.215 0.009 0.318 0.027l-0.011-0.002c0.253 0.028 0.479 0.070 0.699 0.127l-0.033-0.007 0.047 0.010v-1.104l-0.086-0.019c-0.185-0.047-0.415-0.090-0.65-0.118l-0.029-0.003c-0.138-0.019-0.298-0.030-0.461-0.030-0.152 0-0.302 0.010-0.449 0.028l0.018-0.002c-0.392 0.037-0.744 0.187-1.030 0.415l0.004-0.003c-0.196 0.155-0.347 0.36-0.436 0.595l-0.003 0.009c-0.062 0.167-0.098 0.36-0.098 0.562s0.036 0.395 0.102 0.573l-0.004-0.012c0.071 0.187 0.178 0.346 0.314 0.476l0.001 0c0.118 0.114 0.253 0.212 0.399 0.29l0.010 0.005c0.178 0.097 0.384 0.18 0.601 0.239l0.020 0.005c0.071 0.021 0.142 0.044 0.212 0.067l0.106 0.039 0.030 0.012c0.11 0.040 0.204 0.099 0.283 0.175l-0-0c0.055 0.051 0.098 0.114 0.125 0.185l0.001 0.003c0.008 0.031 0.013 0.066 0.013 0.103 0 0.035-0.004 0.069-0.013 0.101l0.001-0.003c-0.035 0.108-0.109 0.195-0.205 0.246l-0.002 0.001c-0.1 0.052-0.216 0.090-0.338 0.107l-0.006 0.001c-0.117 0.019-0.253 0.030-0.391 0.030-0.050 0-0.1-0.001-0.15-0.004l0.007 0c-0.265-0.021-0.503-0.054-0.737-0.099l0.041 0.007q-0.18-0.039-0.359-0.084zM7.672 23.712v-1.388l-0.027 0.012c-0.292 0.145-0.634 0.236-0.995 0.253l-0.006 0c-0.034 0.003-0.074 0.004-0.114 0.004-0.337 0-0.648-0.113-0.897-0.303l0.004 0.003c-0.202-0.157-0.355-0.369-0.436-0.613l-0.003-0.009c-0.048-0.14-0.075-0.301-0.075-0.469 0-0.13 0.016-0.255 0.047-0.375l-0.002 0.010c0.067-0.289 0.226-0.534 0.444-0.709l0.002-0.002c0.191-0.161 0.432-0.27 0.696-0.302l0.006-0.001c0.077-0.009 0.167-0.014 0.257-0.014 0.391 0 0.759 0.097 1.081 0.268l-0.013-0.006 0.030 0.016v-1.396l-0.064-0.017c-0.325-0.107-0.699-0.169-1.087-0.169-0.062 0-0.124 0.002-0.185 0.005l0.009-0c-0.411 0.011-0.797 0.104-1.147 0.265l0.018-0.008c-0.368 0.171-0.677 0.413-0.921 0.709l-0.004 0.004c-0.373 0.469-0.599 1.070-0.599 1.724 0 0.624 0.206 1.2 0.553 1.664l-0.005-0.007c0.363 0.463 0.869 0.799 1.452 0.941l0.018 0.004c0.244 0.062 0.525 0.098 0.814 0.098 0.373 0 0.732-0.060 1.069-0.17l-0.024 0.007 0.104-0.029zM21.412 23.712v-1.388l-0.027 0.012c-0.292 0.145-0.634 0.236-0.995 0.253l-0.006 0c-0.034 0.003-0.073 0.004-0.113 0.004-0.338 0-0.649-0.113-0.898-0.303l0.004 0.003c-0.202-0.157-0.355-0.369-0.437-0.613l-0.003-0.009c-0.047-0.139-0.074-0.3-0.074-0.467 0-0.13 0.016-0.257 0.047-0.377l-0.002 0.010c0.068-0.289 0.227-0.534 0.444-0.709l0.002-0.002c0.191-0.161 0.432-0.27 0.696-0.302l0.006-0.001c0.077-0.009 0.167-0.014 0.257-0.014 0.391 0 0.759 0.097 1.081 0.268l-0.013-0.006 0.030 0.016v-1.396l-0.064-0.017c-0.325-0.107-0.699-0.169-1.087-0.169-0.062 0-0.124 0.002-0.185 0.005l0.009-0c-0.411 0.011-0.797 0.104-1.147 0.265l0.018-0.008c-0.368 0.171-0.676 0.412-0.92 0.709l-0.004 0.005c-0.374 0.469-0.599 1.069-0.599 1.723 0 0.625 0.206 1.201 0.555 1.665l-0.005-0.007c0.363 0.463 0.869 0.798 1.45 0.941l0.018 0.004c0.244 0.062 0.525 0.098 0.814 0.098 0.373 0 0.732-0.060 1.069-0.17l-0.024 0.007 0.102-0.029z"/> </g>

</svg>