<!DOCTYPE svg PUBLIC "-//W3C//DTD SVG 1.1//EN" "http://www.w3.org/Graphics/SVG/1.1/DTD/svg11.dtd">

<!-- Uploaded to: SVG Repo, www.svgrepo.com, Transformed by: SVG Repo Mixer Tools -->
<svg width="800px" height="800px" viewBox="0 0 1024 1024" class="icon" version="1.1" xmlns="http://www.w3.org/2000/svg" fill="#e5b86c" stroke="#e5b86c">

<g id="SVGRepo_bgCarrier" stroke-width="0"/>

<g id="SVGRepo_tracerCarrier" stroke-linecap="round" stroke-linejoin="round"/>

<g id="SVGRepo_iconCarrier">

<path d="M896 192H128c-35.3 0-64 28.7-64 64v512c0 35.3 28.7 64 64 64h576.6l191.6 127.7L896 832c35.3 0 64-28.7 64-64V256c0-35.3-28.7-64-64-64z" fill="#ffca66"/>

<path d="M640 512c0-125.4-51.5-238.7-134.5-320H128c-35.3 0-64 28.7-64 64v512c0 35.3 28.7 64 64 64h377.5c83-81.3 134.5-194.6 134.5-320z" fill="#e5b86c"/>

<path d="M256 512m-64 0a64 64 0 1 0 128 0 64 64 0 1 0-128 0Z" fill="#544c34"/>

<path d="M512 512m-64 0a64 64 0 1 0 128 0 64 64 0 1 0-128 0Z" fill="#544c34"/>

<path d="M768 512m-64 0a64 64 0 1 0 128 0 64 64 0 1 0-128 0Z" fill="#544c34"/>

</g>

</svg>