<svg width="501" height="132" viewBox="0 0 501 132" fill="none" xmlns="http://www.w3.org/2000/svg">
<g clip-path="url(#clip0_1330_662)">
<path d="M13.5519 90.6006L2.57544 131.595H457.205L468.181 90.61L13.5519 90.6006Z" fill="#253858"/>
<path d="M0.951172 27.7995C2.16627 27.7995 3.38448 27.837 4.59958 27.8401C7.44208 27.8401 10.2846 27.8401 13.124 27.8401C13.63 27.8401 13.7831 27.9869 13.7768 28.4929C13.7487 30.2513 13.7768 32.0098 13.7768 33.7714V34.496L13.9455 34.571C14.0767 34.3961 14.2204 34.2274 14.3422 34.0431C16.1097 31.1222 18.8251 28.8954 22.0357 27.7339C23.5722 27.1454 25.214 26.8813 26.8576 26.9584C28.5013 27.0354 30.1111 27.4519 31.5859 28.1816C33.0606 28.9113 34.3683 29.9384 35.4266 31.1982C36.4849 32.458 37.2709 33.9233 37.7351 35.5017C39.0529 39.2319 39.5463 43.2033 39.1813 47.1425C39.0311 51.0063 37.9808 54.7817 36.1139 58.168C34.9065 60.49 33.0153 62.3855 30.6959 63.5981C28.3765 64.8108 25.7406 65.2823 23.1446 64.9488C19.9724 64.637 17.0079 63.23 14.7608 60.9696C14.5025 60.6946 14.2605 60.4046 14.0361 60.1013L13.8143 60.2263V77.5016H7.33588C7.33588 77.3236 7.29215 77.1549 7.29215 76.9831C7.30464 63.3403 7.31505 49.7016 7.32338 36.0671C7.32764 35.0314 7.24615 33.9971 7.07974 32.9749C7.0291 32.2313 6.71182 31.531 6.18619 31.0025C5.66055 30.474 4.96187 30.153 4.21849 30.0983C3.37662 29.9497 2.52645 29.8527 1.67273 29.8078C1.22918 29.7797 1.08861 29.6204 1.08549 29.1832C1.06248 28.7647 1.01765 28.3476 0.951172 27.9338L0.951172 27.7995ZM13.7581 47.1644C13.7581 50.4345 13.7581 53.7016 13.7768 56.9717C13.7875 57.1508 13.8339 57.326 13.9133 57.4869C13.9927 57.6478 14.1035 57.7912 14.2391 57.9087C16.5935 59.7802 19.3907 61.013 22.3606 61.4881C23.4848 61.7014 24.6435 61.646 25.7423 61.3263C26.841 61.0065 27.8486 60.4316 28.6828 59.6485C30.0226 58.2958 30.964 56.6003 31.4035 54.7479C32.6281 50.1867 32.7937 45.4059 31.8876 40.7708C31.5144 38.3603 30.6178 36.0607 29.2607 34.0337C28.4911 32.7571 27.3108 31.7797 25.913 31.2616C24.5152 30.7435 22.9829 30.7155 21.5672 31.1821C18.4687 32.0969 15.7817 34.0543 13.9611 36.723C13.8217 36.9744 13.7577 37.2607 13.7768 37.5475C13.7768 40.749 13.7768 43.9504 13.7768 47.1519" fill="#0065FF"/>
<path d="M190.853 13.1725V11.1704H203.659V34.4707C204.556 33.3963 205.318 32.3406 206.218 31.4223C207.984 29.466 210.276 28.0605 212.821 27.3741C215.366 26.6877 218.054 26.7496 220.565 27.5525C222.194 28.0714 223.694 28.9334 224.963 30.0804C226.232 31.2274 227.24 32.6328 227.921 34.2021C229.204 36.8179 229.93 39.6713 230.054 42.5821C230.457 46.9065 229.868 51.2658 228.333 55.3285C227.125 58.668 224.81 61.4932 221.773 63.3337C219.163 64.7744 216.174 65.3812 213.209 65.0724C210.244 64.7636 207.444 63.5541 205.187 61.6065C204.746 61.2223 204.343 60.7913 203.903 60.4071C203.76 60.2784 203.577 60.2024 203.385 60.1916C203.31 60.1916 203.207 60.4696 203.172 60.632C202.938 61.8251 202.729 63.0214 202.476 64.2114C202.435 64.3957 202.223 64.683 202.085 64.6861C200.42 64.7174 198.758 64.708 197.003 64.708V63.9272C197.003 49.1432 197.003 34.3687 197.003 19.6035C196.971 18.1894 196.867 16.7778 196.691 15.3745C196.666 14.9965 196.513 14.6383 196.256 14.3602C195.999 14.082 195.654 13.9009 195.279 13.8471C194.067 13.6129 192.845 13.4411 191.624 13.2474C191.384 13.21 191.137 13.2006 190.865 13.1756M203.694 47.2203C203.694 50.4904 203.694 53.7606 203.694 57.0308C203.692 57.1667 203.717 57.3016 203.768 57.4276C203.819 57.5536 203.895 57.6682 203.991 57.7648C206.31 59.5757 209.033 60.7994 211.928 61.3316C214.004 61.8601 216.204 61.5553 218.058 60.4825C219.912 59.4096 221.272 57.6539 221.848 55.5909C222.633 53.2378 223.039 50.7751 223.051 48.2947C223.237 44.9155 222.921 41.5273 222.114 38.2406C221.687 36.2681 220.688 34.4649 219.243 33.0558C218.243 32.2037 217.051 31.608 215.77 31.3201C214.488 31.0322 213.155 31.0609 211.887 31.4036C208.82 32.0812 206.086 33.8077 204.156 36.2854C203.812 36.6667 203.632 37.1685 203.656 37.6815C203.681 40.8611 203.656 44.0407 203.656 47.2203" fill="#253858"/>
<path d="M265.011 61.9254C265.029 62.1721 265.048 62.4127 265.067 62.6563C265.204 64.4022 265.214 64.4522 263.483 64.7958C262.452 65.0245 261.396 65.1231 260.341 65.0894C259.136 65.0195 257.985 64.5671 257.056 63.7981C256.126 63.0291 255.466 61.9835 255.171 60.8135C255.003 60.3512 254.881 59.8765 254.715 59.3236C253.997 59.9483 253.328 60.573 252.625 61.1446C250.442 63.0488 247.807 64.3628 244.973 64.9613C242.739 65.424 240.417 65.1765 238.331 64.2535C236.245 63.3304 234.5 61.7782 233.34 59.814C232.027 57.3617 231.724 54.4933 232.496 51.8208C233.268 49.1483 235.054 46.8833 237.473 45.509C239.903 44.1551 242.596 43.3402 245.369 43.1196C247.693 42.8791 250.036 42.8354 252.372 42.7073C252.638 42.7073 252.903 42.7073 253.247 42.7073C253.459 39.6721 253.237 36.6222 252.588 33.6496C252.255 32.3813 251.485 31.2713 250.414 30.5157C249.342 29.7601 248.038 29.4077 246.731 29.5205C245.592 29.5653 244.464 29.7564 243.373 30.0889C242.246 30.4133 241.254 31.0946 240.546 32.0306C239.839 32.9666 239.454 34.1068 239.45 35.28C239.413 35.7235 239.388 36.1701 239.356 36.6543H234.846V35.8078C234.846 34.0494 234.846 32.2878 234.861 30.5293C234.866 30.3988 234.9 30.271 234.96 30.1553C235.021 30.0396 235.107 29.939 235.211 29.8609C239.741 27.7411 244.719 26.76 249.714 27.0031C251.703 27.0858 253.644 27.6324 255.384 28.5991C256.561 29.2987 257.557 30.2665 258.29 31.4236C259.022 32.5808 259.472 33.8946 259.601 35.2581C259.759 36.3965 259.838 37.5445 259.838 38.6938C259.86 43.9255 259.813 49.1571 259.869 54.3887C259.885 56.1183 260.039 57.8438 260.332 59.5485C260.378 60.2378 260.681 60.8847 261.18 61.3621C261.68 61.8395 262.34 62.1128 263.03 62.1284C263.695 62.1189 264.358 62.051 265.011 61.9254ZM253.238 44.7469C250.149 44.5315 247.051 45.0207 244.179 46.1774C242.551 46.8261 241.179 47.9872 240.27 49.485C239.361 50.9829 238.965 52.7361 239.141 54.4793C239.188 55.4712 239.442 56.4423 239.887 57.3299C240.332 58.2175 240.958 59.0021 241.725 59.633C242.492 60.2639 243.383 60.7271 244.34 60.9928C245.297 61.2585 246.299 61.3209 247.281 61.1758C249.25 60.7796 251.119 59.9903 252.775 58.8551C252.93 58.7723 253.057 58.6451 253.139 58.4899C253.222 58.3347 253.256 58.1585 253.238 57.9837C253.238 53.9702 253.238 49.9598 253.238 45.9463C253.238 45.5871 253.238 45.2279 253.238 44.7438" fill="#253858"/>
<path d="M350.467 36.682H346.028C346.01 36.4915 345.978 36.3228 345.978 36.151C345.978 34.277 345.978 32.403 345.978 30.529C345.982 30.3986 346.015 30.2708 346.075 30.1551C346.135 30.0393 346.221 29.9387 346.325 29.8606C350.848 27.7241 355.833 26.7493 360.828 27.0246C362.196 27.1357 363.544 27.418 364.842 27.8648C366.45 28.3979 367.864 29.3935 368.909 30.7269C369.954 32.0603 370.582 33.6722 370.714 35.3608C370.833 36.2533 370.887 37.153 370.877 38.0532C370.877 43.6034 370.849 49.1505 370.905 54.7007C370.917 56.2739 371.077 57.8425 371.383 59.3857C371.409 59.8607 371.548 60.3225 371.789 60.7327C372.029 61.143 372.365 61.4898 372.767 61.7444C373.168 61.9989 373.625 62.1537 374.099 62.196C374.573 62.2383 375.05 62.1668 375.49 61.9875C375.665 61.95 375.84 61.9188 376.09 61.8719C376.156 62.6122 376.237 63.3181 376.271 64.0239C376.26 64.1032 376.23 64.1785 376.183 64.2434C376.137 64.3082 376.074 64.3605 376.003 64.3956C374.25 65.081 372.344 65.2754 370.489 64.9578C369.551 64.7384 368.684 64.2813 367.973 63.6304C367.262 62.9795 366.73 62.1567 366.429 61.241C366.185 60.6382 366.013 59.9917 365.788 59.317C365.104 59.9167 364.455 60.5227 363.767 61.0849C361.597 63.0491 358.93 64.3801 356.055 64.9328C353.957 65.3976 351.767 65.2223 349.77 64.4293C347.772 63.6364 346.059 62.2625 344.851 60.4852C344.049 59.2534 343.513 57.868 343.277 56.4174C343.04 54.9669 343.109 53.483 343.479 52.0605C343.848 50.638 344.51 49.3082 345.422 48.1559C346.335 47.0036 347.477 46.0541 348.777 45.3681C351.15 44.0964 353.759 43.3277 356.442 43.1099C358.813 42.8725 361.203 42.8257 363.583 42.6976C363.783 42.6976 363.98 42.6976 364.145 42.6976C364.205 42.607 364.252 42.5727 364.252 42.5383C364.205 40.1958 364.28 37.8533 364.067 35.517C364.061 34.4022 363.752 33.3101 363.171 32.3585C362.59 31.4068 361.761 30.6317 360.772 30.1167C359.847 29.6854 358.844 29.4467 357.823 29.415C356.803 29.3833 355.787 29.5594 354.837 29.9324C351.448 31.1162 350.689 32.7934 350.442 36.2104C350.442 36.3416 350.442 36.4727 350.442 36.6758M364.227 44.7278C361.401 44.5508 358.568 44.9427 355.896 45.8803C354.202 46.4325 352.734 47.5194 351.711 48.9776C350.688 50.4358 350.166 52.1865 350.223 53.9667C350.213 55.0019 350.426 56.0272 350.849 56.9722C351.272 57.9172 351.894 58.7597 352.673 59.442C353.451 60.1242 354.368 60.6301 355.361 60.925C356.353 61.2199 357.398 61.2968 358.423 61.1505C360.344 60.7486 362.17 59.9808 363.802 58.8891C363.968 58.8005 364.104 58.6636 364.192 58.4964C364.279 58.3292 364.314 58.1395 364.292 57.9521C364.277 53.7824 364.292 49.6127 364.292 45.4431C364.292 45.2244 364.273 45.0058 364.261 44.7153" fill="#253858"/>
<path d="M326.774 42.6667C326.993 39.6241 326.77 36.5658 326.112 33.5871C325.753 32.341 324.978 31.2551 323.917 30.5098C322.856 29.7644 321.571 29.4043 320.277 29.4892C318.766 29.4746 317.274 29.8272 315.929 30.5168C315.141 30.9163 314.468 31.5088 313.971 32.2391C313.475 32.9693 313.171 33.8135 313.089 34.6928C312.993 35.333 312.952 35.9827 312.88 36.6636H308.507C308.476 36.5194 308.455 36.3733 308.445 36.2263C308.445 34.3086 308.429 32.3908 308.46 30.4731C308.475 30.3461 308.517 30.2239 308.586 30.1158C308.654 30.0076 308.745 29.9162 308.854 29.8484C312.344 28.2514 316.09 27.29 319.918 27.0093C322.032 26.8397 324.161 27.0105 326.221 27.5153C328.144 27.9418 329.873 28.9903 331.14 30.4984C332.407 32.0064 333.142 33.8901 333.231 35.8578C333.315 36.8666 333.353 37.8817 333.359 38.8937C333.381 44.7125 333.359 50.5313 333.418 56.3502C333.445 57.3853 333.576 58.4151 333.812 59.4236C333.847 59.8789 333.986 60.3201 334.217 60.7139C334.449 61.1077 334.767 61.4437 335.147 61.6965C335.527 61.9492 335.96 62.1122 336.413 62.1729C336.866 62.2337 337.326 62.1907 337.76 62.0472C337.982 62.0097 338.2 61.9566 338.547 61.8879C338.616 62.7062 338.685 63.4964 338.756 64.321C336.647 65.2566 334.269 65.3899 332.069 64.6958C331.043 64.1913 330.16 63.44 329.497 62.5093C328.834 61.5787 328.412 60.498 328.27 59.3642C327.233 60.2263 326.265 61.0946 325.231 61.8629C322.955 63.7031 320.186 64.8308 317.272 65.105C314.667 65.4161 312.04 64.7322 309.918 63.19C307.795 61.6478 306.333 59.3612 305.824 56.7874C305.34 54.3734 305.71 51.8664 306.871 49.6951C308.032 47.5238 309.911 45.8233 312.187 44.8843C314.664 43.7854 317.319 43.1381 320.024 42.9728C322.064 42.801 324.116 42.7885 326.162 42.7011C326.337 42.7011 326.512 42.6823 326.765 42.6667M326.765 44.7281C323.771 44.5328 320.771 44.9867 317.969 46.0587C316.35 46.6644 314.966 47.7686 314.016 49.2119C313.066 50.6552 312.6 52.363 312.683 54.0888C312.682 55.1162 312.903 56.1316 313.331 57.0658C313.758 58 314.382 58.8308 315.161 59.5016C315.939 60.1724 316.853 60.6673 317.84 60.9524C318.827 61.2376 319.864 61.3063 320.88 61.1539C322.779 60.7681 324.583 60.0125 326.19 58.9301C326.377 58.8387 326.532 58.6928 326.635 58.5116C326.737 58.3304 326.783 58.1224 326.765 57.915C326.743 53.764 326.765 49.6162 326.765 45.4652V44.7281Z" fill="#253858"/>
<path d="M59.7942 64.9707C55.7641 65.1141 51.8194 63.7873 48.6953 61.2375C45.5712 58.6878 43.4809 55.0891 42.8142 51.1123C42.1204 48.293 42.0035 45.3626 42.4705 42.4971C42.9375 39.6315 43.9787 36.8898 45.5317 34.4366C46.8354 32.3532 48.6126 30.6068 50.7185 29.3395C52.8245 28.0723 55.1998 27.3199 57.6514 27.1436C61.4592 26.6366 65.3279 27.3985 68.6591 29.3112C70.6386 30.4954 72.3546 32.0724 73.7014 33.945C75.0482 35.8175 75.9972 37.946 76.49 40.1993C77.2803 42.9926 77.4998 45.9166 77.1354 48.7966C76.771 51.6766 75.8302 54.4538 74.3691 56.9624C73.1485 59.1474 71.4195 61.0063 69.3284 62.3818C67.2372 63.7573 64.8455 64.6088 62.3556 64.8645C62.1128 64.9104 61.8678 64.9437 61.6216 64.9644C61.0156 64.9644 60.4065 64.9644 59.7974 64.9644M70.4552 45.2872C70.3584 44.3658 70.2584 42.7229 69.9991 41.105C69.5917 37.9201 68.3719 34.8934 66.4569 32.3159C65.8252 31.4107 65.015 30.6443 64.0762 30.0637C63.1373 29.4831 62.0897 29.1006 60.9976 28.9397C59.9055 28.7788 58.792 28.843 57.7256 29.1281C56.6592 29.4133 55.6624 29.9135 54.7964 30.598C53.086 31.9804 51.7802 33.7986 51.0168 35.8609C48.9903 40.9821 48.5368 46.5911 49.7143 51.9712C50.2241 54.9843 51.5167 57.8106 53.4626 60.1669C54.7185 61.6995 56.4915 62.72 58.4475 63.0364C60.4036 63.3528 62.4079 62.9432 64.083 61.8848C65.7554 60.7561 67.0932 59.1983 67.9563 57.3746C69.7234 53.5953 70.5793 49.4542 70.4552 45.2841" fill="#0065FF"/>
<path d="M278.817 61.816H302.713V64.2834H270.88C270.724 63.2213 270.955 62.1386 271.53 61.2319C278.976 50.9477 286.387 40.6406 293.761 30.3106C293.848 30.1919 293.926 30.067 294.073 29.839H293.248C288.669 29.839 284.093 29.839 279.504 29.8546C278.586 29.8546 277.668 29.9889 276.749 30.0576C276.451 30.0622 276.165 30.1782 275.948 30.3827C275.73 30.5873 275.597 30.8657 275.575 31.1633C275.48 31.8309 275.427 32.5037 275.415 33.1779C275.39 34.0055 275.415 34.8332 275.415 35.7015H271.833V27.79H301.773C301.866 28.3284 301.851 28.8799 301.728 29.4124C301.606 29.9449 301.379 30.4477 301.06 30.8915C293.743 40.9925 286.463 51.1185 279.22 61.2694C279.117 61.4131 279.008 61.5505 278.811 61.816" fill="#253858"/>
<path d="M378.633 29.6578V27.8025H391.458V34.4115C394.823 29.2705 399.13 26.1377 405.637 27.1934V37.235H402.016C401.885 36.2356 401.791 35.2111 401.613 34.2023C401.326 32.5812 401.07 32.3751 399.427 32.4032C398.048 32.4576 396.7 32.8328 395.492 33.4992C394.283 34.1656 393.246 35.1047 392.464 36.2418C391.768 37.0906 391.408 38.1654 391.452 39.2621C391.515 44.6749 391.452 50.0877 391.49 55.5036C391.49 56.8498 391.627 58.1991 391.736 59.5421C391.732 60.1035 391.937 60.6462 392.313 61.0632C392.689 61.4801 393.208 61.7409 393.767 61.7941C394.941 61.969 396.128 62.072 397.312 62.197C397.709 62.2376 398.109 62.2438 398.53 62.2688V64.299H378.611C378.587 63.719 378.597 63.1382 378.639 62.5593C378.639 62.4219 378.998 62.2469 379.211 62.2126C380.32 62.0471 381.441 61.9471 382.553 61.7753C383.112 61.7414 383.637 61.497 384.023 61.0913C384.409 60.6857 384.627 60.1489 384.633 59.589C384.73 58.3396 384.868 57.0747 384.874 55.8159C384.899 49.2985 384.899 42.7821 384.874 36.2668C384.874 34.8769 384.696 33.4839 384.561 32.0971C384.541 31.6961 384.384 31.3142 384.115 31.0157C383.847 30.7171 383.484 30.5199 383.087 30.4573C381.641 30.1669 380.182 29.9326 378.651 29.664" fill="#253858"/>
<path d="M76.8118 13.0259V11.2362C77.0679 11.2362 77.2866 11.2018 77.5083 11.2018C81.2286 11.2018 84.9488 11.2175 88.6691 11.1831C89.3313 11.1831 89.4438 11.4111 89.4438 12.0014C89.4438 20.1388 89.4635 28.2773 89.5031 36.4168C89.5281 45.3433 89.5531 54.271 89.5781 63.1996C89.5781 64.1991 89.5781 64.1991 88.5879 64.1991H82.5749C82.5749 63.9336 82.5374 63.7181 82.5374 63.5026C82.5655 58.5864 82.5874 53.6734 82.628 48.7572C82.6592 45.2403 82.7311 41.7234 82.7717 38.2096C82.8466 31.6287 82.9216 25.0477 82.9653 18.4668C82.9595 17.6336 82.8653 16.8033 82.6842 15.99C82.5881 15.3933 82.3095 14.841 81.8866 14.4092C81.4637 13.9774 80.9173 13.6873 80.3227 13.5787C79.1857 13.332 78.0238 13.2102 76.818 13.0228" fill="#0065FF"/>
<path d="M185.114 27.8308C184.38 29.2332 183.621 30.5325 182.997 31.8912C179.365 39.8287 175.75 47.7745 172.151 55.7287C169.527 61.5069 166.929 67.2851 164.283 73.0634C163.927 74.1294 163.29 75.0794 162.438 75.8124C161.586 76.5454 160.552 77.0342 159.444 77.2268C158.482 77.3429 157.512 77.3941 156.543 77.3799C154.625 77.3799 152.71 77.3111 150.795 77.2612C150.392 77.2612 149.992 77.1956 149.602 77.1643C149.352 76.1086 149.424 75.9837 150.405 76.0149C151.654 76.0555 152.925 76.1211 154.184 76.2055C156.213 76.3869 158.253 76.027 160.097 75.1623C161.248 74.6629 162.176 73.7596 162.705 72.623C163.446 70.9145 164.074 69.1529 164.748 67.4163C165.083 66.5574 165.373 65.6797 165.779 64.852C165.877 64.6679 165.93 64.4629 165.932 64.2542C165.935 64.0456 165.888 63.8393 165.795 63.6527C162.001 54.5845 158.212 45.5132 154.428 36.4388C153.934 35.255 153.491 34.0494 152.941 32.8938C152.605 32.0371 152.039 31.2899 151.305 30.7343C150.572 30.1788 149.699 29.8366 148.783 29.7454C148.643 29.7454 148.524 29.4768 148.405 29.3269C148.384 29.2988 148.405 29.2394 148.405 29.1926C148.43 27.5153 148.199 27.8339 149.736 27.8246C152.825 27.8058 155.918 27.8246 159.007 27.8246H159.844C159.844 28.6491 159.891 29.4112 159.844 30.1639C159.781 31.6089 160.067 33.0477 160.678 34.3586C163.648 41.4383 166.607 48.5179 169.556 55.5975C169.64 55.7974 169.737 55.9911 169.868 56.269C169.968 56.1511 170.058 56.0247 170.137 55.8911C173.16 49.0603 176.231 42.2514 179.17 35.3862C180.132 33.1405 180.779 30.7574 181.532 28.4242C181.547 28.3277 181.582 28.2352 181.634 28.1523C181.685 28.0695 181.753 27.9979 181.834 27.9419C181.914 27.886 182.005 27.8467 182.1 27.8266C182.196 27.8064 182.295 27.8057 182.391 27.8246C183.284 27.862 184.177 27.8246 185.127 27.8246" fill="#0065FF"/>
<path d="M144.691 60.3384C144.691 61.1442 144.716 61.8657 144.676 62.5841C144.664 62.6933 144.627 62.7982 144.568 62.8909C144.509 62.9835 144.429 63.0613 144.335 63.1182C139.472 65.211 134.045 65.6049 128.93 64.2363C126.392 63.5004 124.073 62.1544 122.175 60.3157C120.278 58.4771 118.859 56.2019 118.044 53.6887C116.776 50.5653 116.274 47.1837 116.581 43.8267C116.887 40.4697 117.993 37.2348 119.805 34.3926C121.103 32.3172 122.875 30.5791 124.974 29.3211C127.074 28.0631 129.442 27.321 131.885 27.1557C136.05 26.9253 140.225 27.3875 144.239 28.5238C144.595 28.605 144.698 28.8018 144.695 29.1485C144.695 31.6471 144.695 34.1458 144.695 36.6445C144.695 37.0849 144.535 37.2411 144.098 37.2286C143.195 37.2036 142.293 37.1942 141.393 37.2286C140.868 37.2505 140.712 37.0849 140.671 36.5477C140.612 35.5596 140.463 34.5789 140.225 33.618C139.924 32.1104 139.037 30.7836 137.76 29.9283C136.482 29.073 134.918 28.7589 133.409 29.0548C131.652 29.1576 129.96 29.7558 128.529 30.78C127.098 31.8042 125.986 33.2126 125.322 34.8424C124.217 37.1643 123.565 39.6755 123.401 42.2416C123.048 45.9965 123.474 49.7838 124.65 53.367C125.221 55.5066 126.398 57.4354 128.041 58.9212C129.683 60.4069 131.72 61.3861 133.906 61.7408C137.256 62.3058 140.698 61.9295 143.848 60.6538L144.688 60.3415" fill="#0065FF"/>
<path d="M98.4616 29.7361V27.8901H111.069C111.175 39.9744 111.281 52.0275 111.381 64.1462H104.406C104.406 63.6121 104.406 63.053 104.406 62.497C104.454 57.3351 104.503 52.1722 104.553 47.0083C104.587 43.129 104.634 39.2529 104.643 35.3737C104.643 34.5636 104.566 33.7553 104.415 32.9594C104.349 32.2083 104.017 31.5054 103.48 30.9766C102.942 30.4478 102.234 30.1276 101.482 30.0734C100.998 29.9828 100.504 29.911 100.014 29.8579C99.5237 29.8048 99.0333 29.7798 98.4523 29.7361" fill="#0065FF"/>
<path d="M111.069 14.6221H104.721V20.9438H111.069V14.6221Z" fill="#0065FF"/>
<path d="M494.21 44.7903C494.21 52.6684 491.874 60.3695 487.497 66.9199C483.12 73.4703 476.898 78.5757 469.619 81.5905C462.34 84.6053 454.33 85.3941 446.603 83.8572C438.876 82.3203 431.778 78.5266 426.206 72.9559C420.635 67.3853 416.841 60.2879 415.304 52.5612C413.767 44.8345 414.556 36.8255 417.571 29.5471C420.586 22.2687 425.692 16.0478 432.243 11.671C438.794 7.29413 446.496 4.95801 454.375 4.95801C464.94 4.95801 475.072 9.15461 482.543 16.6246C490.013 24.0946 494.21 34.2261 494.21 44.7903Z" fill="#0065FF"/>
<path d="M440.043 54.926L442.739 54.2045C443.205 55.8778 443.048 57.6631 442.299 59.23C441.534 60.7228 440.241 61.8783 438.672 62.472C437.745 62.9 436.738 63.1239 435.717 63.1288C434.696 63.1336 433.687 62.9193 432.756 62.5001C430.704 61.414 429.148 59.5815 428.408 57.3809C427.762 55.9039 427.432 54.308 427.439 52.6959C427.449 51.3027 427.927 49.9531 428.795 48.8635C429.66 47.7809 430.79 46.9397 432.075 46.4211C433.519 45.7538 435.148 45.606 436.689 46.0025C438.159 46.4583 439.411 47.4387 440.206 48.7573L437.838 50.191C437.305 49.3652 436.52 48.7341 435.598 48.3919C434.763 48.1229 433.859 48.1696 433.056 48.5231C432.444 48.7533 431.891 49.1177 431.439 49.5896C430.986 50.0615 430.646 50.6288 430.441 51.2498C430.046 52.9249 430.262 54.6859 431.05 56.2159C431.57 57.8621 432.642 59.2779 434.087 60.2232C434.648 60.5233 435.272 60.6909 435.908 60.7131C436.545 60.7353 437.178 60.6115 437.76 60.3513C438.72 59.9961 439.504 59.2815 439.947 58.3586C440.386 57.2619 440.426 56.0459 440.059 54.9229" fill="white"/>
<path d="M443.014 51.3027C442.44 50.1787 442.122 48.9418 442.082 47.6805C442.042 46.4191 442.281 45.1646 442.783 44.0065C443.654 42.3072 445.124 40.9908 446.909 40.3116C447.855 39.8826 448.88 39.656 449.919 39.6463C450.958 39.6366 451.987 39.8441 452.941 40.2553C453.958 40.7437 454.868 41.4288 455.618 42.271C456.369 43.1133 456.945 44.0959 457.314 45.1622C458.05 46.7334 458.403 48.4567 458.345 50.1908C458.226 51.548 457.702 52.8383 456.842 53.8951C455.965 54.9894 454.82 55.8392 453.519 56.3625C452.57 56.7987 451.54 57.031 450.496 57.0445C449.451 57.0579 448.416 56.8522 447.456 56.4406C445.357 55.3792 443.761 53.5331 443.014 51.3027ZM445.691 50.2001C446.22 51.8298 447.324 53.2117 448.796 54.0887C449.388 54.3845 450.038 54.5497 450.7 54.5731C451.362 54.5966 452.022 54.4777 452.634 54.2246C453.246 53.9715 453.797 53.59 454.249 53.1059C454.701 52.6218 455.045 52.0463 455.255 51.4183C455.678 49.7296 455.477 47.9454 454.69 46.3928C454.162 44.7988 453.069 43.4533 451.616 42.6104C451.025 42.3153 450.377 42.1501 449.716 42.126C449.055 42.1019 448.396 42.2193 447.785 42.4704C447.173 42.7215 446.622 43.1006 446.169 43.582C445.715 44.0635 445.37 44.6363 445.157 45.2621C444.727 46.9176 444.915 48.6728 445.685 50.2001" fill="white"/>
<path d="M463.614 51.796L457.289 36.4416L459.616 35.4827L460.503 37.6378C460.676 36.6865 461.079 35.7921 461.678 35.0329C462.319 34.2232 463.164 33.5982 464.127 33.2214C465.091 32.7767 466.165 32.6226 467.216 32.7779C468.131 32.9467 468.961 33.4214 469.571 34.124C469.722 33.1019 470.136 32.1364 470.772 31.3223C471.409 30.5081 472.245 29.8732 473.201 29.4796C473.828 29.1692 474.512 28.9922 475.211 28.96C475.91 28.9277 476.609 29.0408 477.262 29.2922C478.613 30.009 479.63 31.2266 480.095 32.6842L484.436 43.2255L481.847 44.2906L477.864 34.6082C477.587 33.8347 477.189 33.1103 476.684 32.4624C476.321 32.0714 475.836 31.8149 475.309 31.7347C474.722 31.6412 474.12 31.7193 473.576 31.9596C473.071 32.1502 472.611 32.4428 472.225 32.8189C471.839 33.1951 471.534 33.6468 471.33 34.1459C470.929 35.4376 471.055 36.835 471.68 38.0345L475.353 46.9548L472.751 48.0261L468.644 38.0501C468.332 37.1112 467.735 36.2932 466.935 35.7107C466.559 35.5114 466.14 35.4071 465.715 35.4071C465.29 35.4071 464.871 35.5114 464.495 35.7107C463.775 36.0025 463.153 36.4932 462.702 37.1256C462.235 37.7793 462.004 38.5722 462.046 39.3744C462.152 40.5452 462.458 41.6892 462.949 42.757L466.229 50.7247L463.614 51.796Z" fill="white"/>
<path d="M484.921 10.7549V1.62846H481.513V0.407227H489.7V1.62846H486.264V10.7549H484.921Z" fill="black"/>
<path d="M491.074 10.7551V0.404297H493.136L495.585 7.73171C495.812 8.41469 495.976 8.92484 496.078 9.26216C496.195 8.88736 496.378 8.33452 496.628 7.60365L499.105 0.419914H500.948V10.7551H499.63V2.09404L496.622 10.7551H495.372L492.38 1.94724V10.7551H491.074Z" fill="black"/>
<path d="M31.8033 100.292H36.4387L34.4802 108.629H43.0265L44.985 100.292H49.6205L44.6726 121.36H40.0372L42.0238 112.902H33.4744L31.4878 121.36H26.8679L31.8033 100.292Z" fill="white"/>
<path d="M61.0656 100.143H65.3418L69.3713 121.36H64.5359L63.7206 116.634H54.812L51.7759 121.36H47.0498L61.0656 100.143ZM63.0272 112.542L61.834 105.712L57.4296 112.542H63.0272Z" fill="white"/>
<path d="M76.7118 100.293H86.342C87.3835 100.182 88.4364 100.318 89.4158 100.689C90.3952 101.06 91.2736 101.656 91.9801 102.429C92.4521 103.128 92.7583 103.924 92.8752 104.759C92.9922 105.594 92.9168 106.444 92.6549 107.245V107.305C92.3252 108.879 91.5524 110.325 90.4277 111.474C89.3509 112.542 88.0442 113.35 86.6075 113.836L89.9873 121.36H84.5521L81.6222 114.617H77.98L76.3963 121.36H71.7609L76.7118 100.293ZM83.6369 110.525C84.6369 110.563 85.6227 110.279 86.4482 109.713C87.1745 109.191 87.6828 108.419 87.8757 107.545V107.486C88.0154 107.106 88.049 106.695 87.9731 106.297C87.8972 105.899 87.7145 105.53 87.4446 105.228C86.7384 104.667 85.8443 104.397 84.9457 104.475H80.3633L78.9421 110.522L83.6369 110.525Z" fill="white"/>
<path d="M107.473 100.292H123.501L122.517 104.475H111.109L110.041 109.019H120.093L119.128 113.198H109.073L107.158 121.353H102.522L107.473 100.292Z" fill="white"/>
<path d="M131.888 100.143H136.164L140.209 121.36H135.361L134.546 116.634H125.637L122.601 121.36H117.875L131.888 100.143ZM133.849 112.542L132.656 105.712L128.252 112.542H133.849Z" fill="white"/>
<path d="M147.534 100.292H152.532L155.968 109.2L163.599 100.292H168.597L163.646 121.36H159.069L162.302 107.617L154.259 116.615H154.14L150.364 107.707L147.153 121.369H142.577L147.534 100.292Z" fill="white"/>
<path d="M172.995 100.292H177.63L172.679 121.36H168.044L172.995 100.292Z" fill="white"/>
<path d="M182.025 100.292H186.661L182.693 117.177H193.198L192.214 121.36H177.08L182.025 100.292Z" fill="white"/>
<path d="M198.418 113.055L193.32 100.292H198.736L201.776 108.747L208.879 100.292H214.145L203.072 112.964L201.098 121.363H196.462L198.418 113.055Z" fill="white"/>
<path d="M226.037 100.292H230.673L228.714 108.629H237.26L239.219 100.292H243.854L238.903 121.36H234.268L236.255 112.902H227.708L225.722 121.36H221.086L226.037 100.292Z" fill="white"/>
<path d="M253.241 121.722C251.768 121.753 250.306 121.46 248.958 120.863C247.79 120.34 246.765 119.545 245.966 118.546C245.187 117.542 244.668 116.362 244.454 115.11C244.214 113.704 244.271 112.264 244.62 110.881V110.821C244.974 109.313 245.596 107.881 246.456 106.592C247.321 105.284 248.382 104.117 249.602 103.132C250.835 102.134 252.221 101.341 253.706 100.783C255.203 100.214 256.791 99.9226 258.392 99.924C259.865 99.8934 261.327 100.187 262.674 100.783C263.842 101.306 264.868 102.101 265.667 103.101C266.445 104.104 266.964 105.284 267.178 106.536C267.419 107.942 267.362 109.382 267.013 110.765V110.825C266.658 112.332 266.036 113.765 265.176 115.054C264.312 116.362 263.251 117.529 262.031 118.514C260.797 119.512 259.412 120.305 257.926 120.863C256.425 121.434 254.832 121.725 253.225 121.722M254.287 117.446C255.205 117.447 256.115 117.273 256.967 116.934C257.82 116.599 258.609 116.12 259.301 115.519C259.997 114.914 260.599 114.209 261.087 113.426C261.58 112.643 261.939 111.784 262.149 110.884V110.825C262.358 109.988 262.404 109.12 262.284 108.267C262.179 107.508 261.894 106.785 261.453 106.158C261.014 105.549 260.431 105.058 259.757 104.728C258.998 104.363 258.165 104.183 257.323 104.2C256.401 104.196 255.487 104.37 254.631 104.712C253.784 105.05 253.001 105.529 252.313 106.127C251.617 106.732 251.014 107.437 250.526 108.22C250.033 109.002 249.673 109.861 249.461 110.762V110.821C249.253 111.658 249.207 112.526 249.327 113.379C249.433 114.137 249.717 114.859 250.158 115.485C250.592 116.092 251.17 116.583 251.838 116.915C252.601 117.284 253.441 117.465 254.287 117.443" fill="white"/>
<path d="M277.858 121.719C276.381 121.751 274.914 121.475 273.551 120.907C272.389 120.415 271.371 119.638 270.59 118.648C269.824 117.642 269.321 116.462 269.125 115.213C268.899 113.77 268.969 112.296 269.331 110.881V110.821C269.684 109.316 270.301 107.884 271.152 106.592C272.008 105.285 273.062 104.117 274.275 103.132C275.489 102.139 276.854 101.346 278.317 100.783C279.793 100.211 281.361 99.9199 282.943 99.9239C283.79 99.9164 284.635 99.9822 285.47 100.121C286.161 100.237 286.839 100.423 287.491 100.677C288.078 100.907 288.633 101.21 289.144 101.579C289.648 101.951 290.115 102.369 290.54 102.829L286.792 106.349C286.485 106.022 286.153 105.72 285.798 105.446C285.459 105.186 285.093 104.964 284.705 104.784C284.289 104.595 283.853 104.454 283.406 104.362C282.872 104.257 282.329 104.207 281.785 104.212C280.924 104.213 280.073 104.393 279.286 104.74C278.465 105.096 277.704 105.574 277.027 106.158C276.331 106.757 275.73 107.459 275.244 108.238C274.75 109.023 274.39 109.884 274.179 110.787V110.846C273.957 111.718 273.903 112.625 274.019 113.517C274.12 114.282 274.402 115.011 274.844 115.644C275.276 116.248 275.857 116.731 276.531 117.046C277.301 117.395 278.14 117.566 278.986 117.546C280.629 117.568 282.246 117.126 283.649 116.272L284.362 113.242H279.695L280.632 109.238H289.781L287.632 118.386C286.258 119.348 284.773 120.141 283.209 120.747C281.499 121.41 279.679 121.742 277.846 121.725" fill="white"/>
<path d="M295.688 100.292H300.323L295.372 121.36H290.737L295.688 100.292Z" fill="white"/>
<path d="M314.886 100.292H319.521L314.57 121.36H309.935L314.886 100.292Z" fill="white"/>
<path d="M323.916 100.292H328.189L335.014 113.264L338.063 100.292H342.639L337.688 121.36H333.746L326.69 107.967L323.544 121.36H318.968L323.916 100.292Z" fill="white"/>
<path d="M349.327 121.663C347.777 121.673 346.24 121.393 344.794 120.835C343.398 120.298 342.155 119.425 341.177 118.293L344.688 115.013C345.426 115.768 346.279 116.4 347.215 116.887C348.2 117.367 349.285 117.605 350.38 117.58C351.201 117.613 352.017 117.431 352.747 117.053C353.031 116.905 353.279 116.699 353.476 116.447C353.672 116.195 353.813 115.904 353.887 115.594V115.535C353.958 115.274 353.965 114.999 353.909 114.735C353.828 114.471 353.658 114.243 353.428 114.088C353.07 113.839 352.682 113.636 352.272 113.486C351.615 113.24 350.945 113.032 350.264 112.861C349.348 112.63 348.449 112.339 347.571 111.99C346.861 111.718 346.208 111.314 345.647 110.8C345.151 110.323 344.806 109.71 344.657 109.038C344.496 108.168 344.537 107.273 344.776 106.421V106.361C344.989 105.428 345.379 104.545 345.925 103.76C346.467 102.985 347.137 102.308 347.906 101.757C348.706 101.187 349.593 100.751 350.533 100.464C351.531 100.16 352.569 100.008 353.612 100.015C355.009 99.989 356.398 100.224 357.708 100.708C358.865 101.152 359.92 101.828 360.806 102.694L357.579 106.186C356.843 105.58 356.033 105.069 355.168 104.665C354.359 104.296 353.48 104.107 352.591 104.109C351.836 104.071 351.087 104.254 350.436 104.637C349.947 104.926 349.592 105.396 349.449 105.946V106.005C349.373 106.296 349.373 106.601 349.449 106.892C349.544 107.177 349.74 107.418 349.998 107.57C350.393 107.817 350.82 108.009 351.267 108.142C351.816 108.323 352.516 108.531 353.366 108.766C354.266 109.008 355.146 109.321 355.996 109.703C356.675 110 357.291 110.424 357.811 110.953C358.263 111.435 358.572 112.034 358.701 112.683C358.831 113.475 358.79 114.285 358.579 115.06V115.119C358.354 116.117 357.94 117.061 357.358 117.902C356.798 118.704 356.098 119.397 355.29 119.948C354.454 120.507 353.535 120.929 352.566 121.197C351.515 121.494 350.428 121.641 349.336 121.634" fill="white"/>
<path d="M368.984 121.691C367.85 121.797 366.707 121.64 365.643 121.233C364.58 120.825 363.625 120.178 362.852 119.342C362.192 118.312 361.778 117.144 361.641 115.928C361.504 114.712 361.648 113.481 362.062 112.33L364.892 100.292H369.527L366.716 112.211C366.493 112.846 366.404 113.519 366.453 114.19C366.503 114.861 366.69 115.514 367.003 116.109C367.357 116.567 367.82 116.927 368.351 117.156C368.881 117.385 369.461 117.475 370.036 117.418C371.361 117.457 372.654 117.013 373.676 116.169C374.768 115.166 375.503 113.835 375.771 112.377L378.608 100.308H383.243L380.451 112.196C380.126 113.665 379.576 115.076 378.82 116.378C378.154 117.51 377.291 118.514 376.271 119.342C375.279 120.135 374.148 120.737 372.935 121.116C371.653 121.514 370.317 121.712 368.974 121.703" fill="white"/>
<path d="M387.095 100.293H396.725C397.766 100.182 398.819 100.318 399.799 100.689C400.778 101.06 401.656 101.656 402.363 102.429C402.835 103.128 403.141 103.924 403.258 104.759C403.375 105.594 403.3 106.444 403.038 107.245V107.305C402.708 108.879 401.935 110.325 400.811 111.474C399.734 112.542 398.427 113.35 396.99 113.836L400.37 121.36H394.932L392.002 114.617H388.372L386.789 121.36H382.153L387.095 100.293ZM394.02 110.525C395.02 110.563 396.006 110.279 396.831 109.713C397.557 109.191 398.066 108.419 398.259 107.545L398.274 107.486C398.413 107.106 398.447 106.694 398.37 106.297C398.294 105.899 398.11 105.529 397.84 105.228C397.134 104.667 396.24 104.397 395.341 104.475H390.746L389.325 110.522L394.02 110.525Z" fill="white"/>
<path d="M407.983 100.292H423.844L422.876 104.415H411.587L410.581 108.688H420.514L419.546 112.811H409.613L408.573 117.237H420.011L419.043 121.36H403.031L407.983 100.292Z" fill="white"/>
<path d="M427.277 100.293H435.492C436.978 100.263 438.455 100.534 439.834 101.089C441.01 101.567 442.05 102.326 442.864 103.301C443.644 104.262 444.168 105.405 444.385 106.624C444.625 107.999 444.57 109.409 444.226 110.762V110.822C443.879 112.301 443.273 113.707 442.436 114.976C441.6 116.253 440.557 117.382 439.35 118.318C438.122 119.269 436.751 120.02 435.289 120.545C433.775 121.088 432.178 121.363 430.569 121.357H422.354L427.277 100.293ZM431.528 117.178C432.446 117.182 433.358 117.029 434.224 116.725C435.062 116.433 435.843 115.995 436.529 115.432C437.217 114.866 437.811 114.195 438.291 113.445C438.791 112.66 439.153 111.795 439.359 110.887V110.828C439.572 109.992 439.617 109.123 439.494 108.27C439.389 107.541 439.108 106.848 438.675 106.252C438.234 105.675 437.649 105.224 436.979 104.943C436.194 104.618 435.349 104.46 434.499 104.478H430.919L427.936 117.178H431.528Z" fill="white"/>
</g>
<defs>
<clipPath id="clip0_1330_662">
<rect width="500" height="131.181" fill="white" transform="translate(0.951172 0.407227)"/>
</clipPath>
</defs>
</svg>
