<svg xmlns="http://www.w3.org/2000/svg" viewBox="0 0 160 160" role="img" aria-labelledby="title desc">
  <title id="title">Company data visualiser icon</title>
  <desc id="desc">Minimal analytics icon showing company records, comparisons, and dashboard bars.</desc>
  <defs>
    <linearGradient id="gold" x1="24" x2="136" y1="24" y2="136" gradientUnits="userSpaceOnUse">
      <stop stop-color="#FFE08A"/>
      <stop offset="1" stop-color="#C79627"/>
    </linearGradient>
    <linearGradient id="cyan" x1="38" x2="126" y1="120" y2="50" gradientUnits="userSpaceOnUse">
      <stop stop-color="#75D7FF"/>
      <stop offset="1" stop-color="#9E8CFF"/>
    </linearGradient>
  </defs>
  <rect x="10" y="10" width="140" height="140" rx="34" fill="#0B0B0D"/>
  <rect x="25" y="25" width="110" height="110" rx="26" fill="#151515" stroke="#3A3321"/>
  <path d="M50 112V58c0-6 5-11 11-11h38c6 0 11 5 11 11v54" fill="#0F1113" stroke="url(#gold)" stroke-width="5" stroke-linejoin="round"/>
  <path d="M42 112h76" stroke="#3A3321" stroke-width="5" stroke-linecap="round"/>
  <path d="M62 66h12M86 66h12M62 82h12M86 82h12" stroke="#FFE08A" stroke-width="5" stroke-linecap="round"/>
  <rect x="61" y="99" width="12" height="13" rx="3" fill="#75D7FF"/>
  <rect x="78" y="91" width="12" height="21" rx="3" fill="url(#cyan)"/>
  <rect x="95" y="78" width="12" height="34" rx="3" fill="url(#gold)"/>
  <path d="M43 122c15-6 27-8 39-9 14-1 24-5 37-14" fill="none" stroke="#75D7FF" stroke-width="4" stroke-linecap="round" stroke-dasharray="1 10"/>
  <circle cx="119" cy="99" r="6" fill="#0B0B0D" stroke="#75D7FF" stroke-width="4"/>
</svg>
